<svg id="visual" viewBox="0 0 900 600" width="900" height="600" xmlns="http://www.w3.org/2000/svg" xmlns:xlink="http://www.w3.org/1999/xlink" version="1.1"><rect x="0" y="0" width="900" height="600" fill="#001220"></rect><path d="M0 395L21.5 387C43 379 86 363 128.8 344.5C171.7 326 214.3 305 257.2 306C300 307 343 330 385.8 334.7C428.7 339.3 471.3 325.7 514.2 337C557 348.3 600 384.7 642.8 387.7C685.7 390.7 728.3 360.3 771.2 352.8C814 345.3 857 360.7 878.5 368.3L900 376L900 601L878.5 601C857 601 814 601 771.2 601C728.3 601 685.7 601 642.8 601C600 601 557 601 514.2 601C471.3 601 428.7 601 385.8 601C343 601 300 601 257.2 601C214.3 601 171.7 601 128.8 601C86 601 43 601 21.5 601L0 601Z" fill="#4facf7"></path><path d="M0 361L21.5 368.7C43 376.3 86 391.7 128.8 399.5C171.7 407.3 214.3 407.7 257.2 414.2C300 420.7 343 433.3 385.8 440.5C428.7 447.7 471.3 449.3 514.2 444.2C557 439 600 427 642.8 408C685.7 389 728.3 363 771.2 353.8C814 344.7 857 352.3 878.5 356.2L900 360L900 601L878.5 601C857 601 814 601 771.2 601C728.3 601 685.7 601 642.8 601C600 601 557 601 514.2 601C471.3 601 428.7 601 385.8 601C343 601 300 601 257.2 601C214.3 601 171.7 601 128.8 601C86 601 43 601 21.5 601L0 601Z" fill="#33a0fb"></path><path d="M0 360L21.5 375.7C43 391.3 86 422.7 128.8 436.7C171.7 450.7 214.3 447.3 257.2 436.5C300 425.7 343 407.3 385.8 411.3C428.7 415.3 471.3 441.7 514.2 449.7C557 457.7 600 447.3 642.8 430.2C685.7 413 728.3 389 771.2 380.3C814 371.7 857 378.3 878.5 381.7L900 385L900 601L878.5 601C857 601 814 601 771.2 601C728.3 601 685.7 601 642.8 601C600 601 557 601 514.2 601C471.3 601 428.7 601 385.8 601C343 601 300 601 257.2 601C214.3 601 171.7 601 128.8 601C86 601 43 601 21.5 601L0 601Z" fill="#1393fe"></path><path d="M0 411L21.5 412.2C43 413.3 86 415.7 128.8 430C171.7 444.3 214.3 470.7 257.2 485C300 499.3 343 501.7 385.8 491C428.7 480.3 471.3 456.7 514.2 449.5C557 442.3 600 451.7 642.8 453C685.7 454.3 728.3 447.7 771.2 443C814 438.3 857 435.7 878.5 434.3L900 433L900 601L878.5 601C857 601 814 601 771.2 601C728.3 601 685.7 601 642.8 601C600 601 557 601 514.2 601C471.3 601 428.7 601 385.8 601C343 601 300 601 257.2 601C214.3 601 171.7 601 128.8 601C86 601 43 601 21.5 601L0 601Z" fill="#0085ff"></path><path d="M0 517L21.5 511.3C43 505.7 86 494.3 128.8 489.3C171.7 484.3 214.3 485.7 257.2 497.2C300 508.7 343 530.3 385.8 538.2C428.7 546 471.3 540 514.2 525.5C557 511 600 488 642.8 491.5C685.7 495 728.3 525 771.2 526.3C814 527.7 857 500.3 878.5 486.7L900 473L900 601L878.5 601C857 601 814 601 771.2 601C728.3 601 685.7 601 642.8 601C600 601 557 601 514.2 601C471.3 601 428.7 601 385.8 601C343 601 300 601 257.2 601C214.3 601 171.7 601 128.8 601C86 601 43 601 21.5 601L0 601Z" fill="#0076ff"></path><path d="M0 586L21.5 576.3C43 566.7 86 547.3 128.8 545C171.7 542.7 214.3 557.3 257.2 562.7C300 568 343 564 385.8 553.7C428.7 543.3 471.3 526.7 514.2 531.2C557 535.7 600 561.3 642.8 567C685.7 572.7 728.3 558.3 771.2 547.8C814 537.3 857 530.7 878.5 527.3L900 524L900 601L878.5 601C857 601 814 601 771.2 601C728.3 601 685.7 601 642.8 601C600 601 557 601 514.2 601C471.3 601 428.7 601 385.8 601C343 601 300 601 257.2 601C214.3 601 171.7 601 128.8 601C86 601 43 601 21.5 601L0 601Z" fill="#0066ff"></path></svg>